<svg xmlns="http://www.w3.org/2000/svg" viewBox="0 0 283.46 71.24"><defs><style>.cls-1{fill:#231815;}.cls-2{fill:#094;}.cls-3{fill:#e60012;}.cls-4{fill:#fff;}</style></defs><g id="レイヤー_2" data-name="レイヤー 2"><g id="レイヤー_1-2" data-name="レイヤー 1"><path class="cls-1" d="M203,21.51a2.87,2.87,0,0,0-.07-.58,2.55,2.55,0,0,0-4.9-.6,2.49,2.49,0,0,0-.3,1.18V40.62h0A1.26,1.26,0,0,0,199,41.87h2.74A1.25,1.25,0,0,0,203,40.62V21.51Z"/><path class="cls-1" d="M246.58,18.47a12,12,0,1,0,12,12,12,12,0,0,0-12-12m.16,22.81c-3.46,0-6.29-4.84-6.29-10.82s2.83-10.84,6.29-10.84S253,24.47,253,30.46s-2.8,10.82-6.27,10.82"/><path class="cls-1" d="M230.66,27.71a12,12,0,1,0-.54,7.14,1.76,1.76,0,0,0,.09-.2v0h0a1.12,1.12,0,0,0,.05-.31h0A1.26,1.26,0,0,0,229,33h-2.7a1.26,1.26,0,0,0-1.23,1h0c-.86,4.22-3.19,7.27-5.92,7.27-3.48,0-6.27-4.84-6.27-10.83s2.79-10.83,6.27-10.83c3,0,5.49,3.6,6.13,8.42a1.24,1.24,0,0,0,1.23,1.19h2.9A1.27,1.27,0,0,0,230.67,28h0a1.49,1.49,0,0,0,0-.21s0,0,0,0"/><path class="cls-1" d="M168,29.05c0-.05,0-.08,0-.12l0,0a12,12,0,1,0-.69,5.8,1.13,1.13,0,0,0,.14-.56v0a1.25,1.25,0,0,0-1.25-1.25h-2.82A1.25,1.25,0,0,0,162,34c-.82,4.24-3.12,7.32-5.85,7.32-3.48,0-6.28-4.85-6.28-10.82h16.72a0,0,0,0,1,0,0h0A1.27,1.27,0,0,0,168,29.18v-.12Zm-18,0c.42-5.29,3-9.38,6.22-9.38S162,23.71,162.4,29Z"/><path class="cls-1" d="M200.26,14.87A2.27,2.27,0,1,0,198,12.61a2.25,2.25,0,0,0,2.25,2.26"/><path class="cls-1" d="M142,40.25l-8.89-28.07A5.09,5.09,0,0,0,128,8.45c-2.26,0-4.07.81-4.93,2.85l0,0-.24.59-6.23,13.55-4.2-13.29a5.09,5.09,0,0,0-5.17-3.73c-2.37,0-4.21.84-5,3.13l-.07.13S98.44,19.91,95.21,27c-3.8,8.39-8,15.53-16.4,14.18-6.53-1.05-8-7-8.42-9.57a1.28,1.28,0,0,0-1.27-1.2H64.77a1.25,1.25,0,0,0-1.25,1.25h0c1,9.67,12.77,15.23,20.91,11.5,5-2.32,8.39-7.61,10.37-11.49.06-.13,1.15-2.43,1.43-3.07,2.87-6.24,6.7-14.53,6.91-14.95a4.5,4.5,0,0,1,.22-.44,1.37,1.37,0,0,1,1.17-.76,1.43,1.43,0,0,1,1.27,1.12v0L114.68,41h0a1.19,1.19,0,0,0,1.15.86h4.24a1.2,1.2,0,0,0,1.21-1.2,1,1,0,0,0-.05-.33h0L117.34,28c3-6.58,6.09-13.24,6.55-14.29h0a1.38,1.38,0,0,1,1.39-.9A1.65,1.65,0,0,1,126.76,14l8.67,26.82a1.26,1.26,0,0,0,1.24,1h4.14a1.26,1.26,0,0,0,1.26-1.24v0a1.23,1.23,0,0,0-.06-.36Z"/><path class="cls-1" d="M183.83,18.47A8.76,8.76,0,0,0,177.39,21v-.13s0,0,0,0v-.27a2.57,2.57,0,1,0-5.13,0v0a1.78,1.78,0,0,0,0,.26V40.61h0a1.26,1.26,0,0,0,1.25,1.25h2.68a1.25,1.25,0,0,0,1.26-1.25h0V25.91c.19-2.72,1.9-5.66,5-5.66,2.44,0,5.23,1.88,5.23,6.33v14a.25.25,0,0,0,0,.08h0a1.24,1.24,0,0,0,1.25,1.25h2.67a1.23,1.23,0,0,0,1.24-1.25h0V27.83a9,9,0,0,0-9-9.36"/><path class="cls-1" d="M274.48,18.47A8.7,8.7,0,0,0,268.05,21v-.13s0,0,0,0v-.27a2.56,2.56,0,1,0-5.11,0v0a.6.6,0,0,0,0,.26V40.61h0a1.23,1.23,0,0,0,1.23,1.25h2.67a1.24,1.24,0,0,0,1.26-1.25h0V25.91c.19-2.72,1.91-5.66,4.95-5.66,2.47,0,5.25,1.88,5.25,6.33v14s0,.06,0,.08h0a1.24,1.24,0,0,0,1.24,1.25h2.68a1.24,1.24,0,0,0,1.24-1.25h0V27.83a9,9,0,0,0-9-9.36"/><path class="cls-2" d="M52.73,30.3a7.28,7.28,0,0,1-7.52-6.4s-1-5.16-1-5.1a4.36,4.36,0,0,0-4.53-3.3h-.17c-.32,0-3.14-.05-4.78,3.37,0,0-1.59,3.36-3,6.29h8.8a2.58,2.58,0,1,1,0,5.15H29.35l-4,8.51a10.32,10.32,0,0,1-9.64,6.28A9.53,9.53,0,0,1,6.17,37.7s-1-5.17-1-5.2C4.85,30.6,3.76,30.25,3,30.29H.13a27.71,27.71,0,0,0,55.19,0H52.73Z"/><path class="cls-3" d="M2.71,25.15a7.3,7.3,0,0,1,7.52,6.4l1,5.11A4.33,4.33,0,0,0,15.74,40h.18a5.24,5.24,0,0,0,4.77-3.35l3-6.3H14.88a2.58,2.58,0,1,1,0-5.16H26.09c1.31-2.78,4-8.5,4-8.5a10.33,10.33,0,0,1,9.62-6.3,9.5,9.5,0,0,1,9.52,7.41s1,5.16,1,5.19c.33,1.9,1.41,2.25,2.22,2.21h2.83a27.72,27.72,0,0,0-55.2,0H2.71Z"/><path class="cls-4" d="M55.32,25.15H52.49c-.81,0-1.89-.31-2.22-2.21,0,0-1-5.19-1-5.19a9.52,9.52,0,0,0-9.53-7.41,10.35,10.35,0,0,0-9.63,6.3s-2.71,5.72-4,8.5H14.88a2.58,2.58,0,1,0,0,5.16h8.79l-3,6.3A5.23,5.23,0,0,1,15.92,40h-.18a4.33,4.33,0,0,1-4.52-3.29l-1-5.11a7.3,7.3,0,0,0-7.52-6.4H.12C0,26,0,26.87,0,27.72s0,1.74.12,2.59H3c.8,0,1.87.3,2.21,2.19l1,5.21a9.53,9.53,0,0,0,9.51,7.4,10.39,10.39,0,0,0,9.65-6.28s2.71-5.73,4-8.51H40.59a2.58,2.58,0,0,0,0-5.16H31.78l3-6.29c1.62-3.4,4.44-3.38,4.77-3.36h.18a4.36,4.36,0,0,1,4.52,3.3l1,5.1a7.33,7.33,0,0,0,7.53,6.41h2.58c.08-.85.13-1.72.13-2.59s-.05-1.72-.13-2.57"/><path class="cls-1" d="M107.34,64.27v.32c0,3.52-1.8,6.65-5.68,6.65-3.63,0-5.92-3.08-5.92-6.52s2.36-6.61,6.08-6.61a5.39,5.39,0,0,1,4.93,3l-2.15,1.16a3.19,3.19,0,0,0-2.84-2c-2.36,0-3.51,2.41-3.51,4.47s1.16,4.36,3.52,4.36a2.93,2.93,0,0,0,2.84-2.82H102v-2Z"/><path class="cls-1" d="M135.71,60.42h.34c1.27,0,2.26.3,2.26,1.84s-1,1.92-2.29,1.92h-.31Zm2.47,5.23a3.28,3.28,0,0,0,2.55-3.46c0-2.67-1.7-3.75-4.16-3.75h-3.3V70.9h2.44v-5h0l3,5h2.93Z"/><path class="cls-1" d="M172.8,60.51a3.92,3.92,0,0,1,3.65,4c0,1.89-1.58,4.28-3.65,4.28s-3.65-2.39-3.65-4.28a3.92,3.92,0,0,1,3.65-4m0,10.73a6.58,6.58,0,1,0-6.16-6.58,6.28,6.28,0,0,0,6.16,6.58"/><path class="cls-1" d="M204.82,58.44h2.44v7c0,1.54.13,3.69,2.2,3.69s2.19-2.15,2.19-3.69v-7h2.43v7.45c0,3-1.29,5.34-4.62,5.34s-4.64-2.29-4.64-5.34Z"/><path class="cls-1" d="M243,60.45h.43c1.36,0,2.27.23,2.27,1.84s-.78,1.94-2.21,1.94H243Zm0,5.79h1.18c2.56,0,4-1.29,4-3.93,0-2.83-1.7-3.87-4.31-3.87h-3.32V70.9H243Z"/></g></g></svg>